<svg xmlns="http://www.w3.org/2000/svg" xmlns:xlink="http://www.w3.org/1999/xlink" width="100%" height="100%" viewBox="0 0  1900 1220" preserveAspectRatio="xMinYMin meet" ><g id="e13_group"><polygon style="stroke:black;fill:black;stroke-width:1px" id="e5_polygon" points="855.043,394.523,840.132,132.281,886.75,135.049,921.99,368.702,961.833,372.302,974.843,130.045,999.873,130.044,1021.25,368.464,1058.93,373.309,1084.97,130.045,1125,131.045,1122.87,389.52,1038.91,529.466,1055.17,732.754,908.883,749.626,939.811,530.473" transform="matrix(-0.707107 -0.707107 0.707107 -0.707107 1211.72 1775.25)"/><path d="M1254.377533,468.767744c11.93,-31.97,30.51,-43.11,-7.6,-93.32c-45.6,-43.02,-41.12,-35.02,-52.09,-42.33c-28,-11.07,-.52,-18.15,-13.02,-40.15c-28.03,2.26,-35.49,28.18,-27.13,27.13c-16.53,-24.06,5.72,-55.6,-43.41,-13.02c-12.56,2.89,-37.19,-10.8,-44.49,13.02c-66.09,20.12,-81.33,23.83,-131.29,31.46c-23.64,13.42,-34.38,7.84,-34.73,24.96c-4.27,9.79,12.8,13.26,44.49,15.19c-6.93,12.35,-42.83,-5.54,-37.98,8.68c9.21,19.18,21.27,17.58,49.92,20.62c36.65,-3.89,47.09,17.03,92.23,22.78c64.73,-26.51,51.57,4.05,29.3,3.26c-64.5,18.38,-86.95,41.23,-96.58,66.18c39.58,56.19,55.79,68.5,115.02,91.15c73.04,-38.43,87.43,-38.12,123.7,-87.89l22.79,-30.39Z" style="stroke:black;fill:black;stroke-width:1px" id="e11_area3"/><ellipse id="e12_ellipse" cx="1086.180000" cy="339.633000" style="fill:white;stroke:black;stroke-width:1px" rx="12.442800" ry="7.839310"/></g></svg>